# File created by Blade
# Date/Time:  Wed Apr 08 17:39:41 2015
#---------------------------------------------------------
:version 1.10
:name HOM
:units
  mass 1.0
  length 1.000000
  angle deg
:documentation
     Acclaim Skeleton File
:root
   axis xyz
   order TX TY TZ RX RY RZ
   position 0.000000 0.000000 0.000000
   orientation 0 0 0
:bonedata
   begin
      id 1
      name Spine_dum
      direction 0.000000 1.000000 0.000000
      length 5.893853
      axis 0.0 0.0 0.0 xyz
   end
   begin
      id 2
      name LeftUpLeg_dum
      direction 1.000000 0.000000 0.000000
      length 3.697939
      axis 0.0 0.0 0.0 xyz
   end
   begin
      id 3
      name RightUpLeg_dum
      direction -1.000000 0.000000 0.000000
      length 3.697939
      axis 0.0 0.0 0.0 xyz
   end
   begin
      id 4
      name Spine
      direction 0.000000 1.000000 0.000000
      length 0.000000
      axis 0.0 0.0 0.0 xyz
      dof rx ry rz
   end
   begin
      id 5
      name Spine_dum1
      direction 0.000000 1.000000 0.000000
      length 16.447146
      axis 0.0 0.0 0.0 xyz
   end
   begin
      id 6
      name Spine_dum2
      direction 0.000000 1.000000 0.000000
      length 10.900383
      axis 0.0 0.0 0.0 xyz
   end
   begin
      id 7
      name Spine_dum3
      direction 0.000000 1.000000 0.000000
      length 10.900383
      axis 0.0 0.0 0.0 xyz
   end
   begin
      id 8
      name Head
      direction 0.000000 1.000000 0.000000
      length 4.527550
      axis 0.0 0.0 0.0 xyz
      dof rx ry rz
   end
   begin
      id 9
      name LeftShoulder
      direction 1.000000 0.000000 0.000000
      length 8.219464
      axis 0.0 0.0 -90.0 xyz
      dof rx ry rz
   end
   begin
      id 10
      name LeftArm
      direction 1.000000 0.000000 0.000000
      length 11.094937
      axis 0.0 0.0 -90.0 xyz
      dof rx ry rz
   end
   begin
      id 11
      name LeftForeArm
      direction 1.000000 0.000000 0.000000
      length 9.103875
      axis 0.0 0.0 -90.0 xyz
      dof ry rz rx
   end
   begin
      id 12
      name LeftHand
      direction 0.000000 0.000000 0.000000
      length 0.000000
      axis 0.0 0.0 -90.0 xyz
      dof rx ry rz
   end
   begin
      id 13
      name LeftHand_dum1
      direction 0.000000 0.000000 0.000000
      length 0.000000
      axis 0.0 0.0 -90.0 xyz
   end
   begin
      id 14
      name LeftHand_dum2
      direction 1.000000 0.000000 0.000000
      length 3.937000
      axis 0.0 0.0 -90.0 xyz
   end
   begin
      id 15
      name LeftHandThumb1
      direction 0.000000 0.000000 1.000000
      length 3.937000
      axis 0.0 0.0 -90.0 xyz
      dof rx rz ry
   end
   begin
      id 16
      name RightShoulder
      direction -1.000000 0.000000 0.000000
      length 8.219464
      axis 0.0 0.0 90.0 xyz
      dof rx ry rz
   end
   begin
      id 17
      name RightArm
      direction -1.000000 0.000000 0.000000
      length 11.094937
      axis 0.0 0.0 90.0 xyz
      dof rx ry rz
   end
   begin
      id 18
      name RightForeArm
      direction -1.000000 0.000000 0.000000
      length 9.103875
      axis 0.0 0.0 90.0 xyz
      dof ry rz rx
   end
   begin
      id 19
      name RightHand
      direction 0.000000 0.000000 0.000000
      length 0.000000
      axis 0.0 0.0 90.0 xyz
      dof rx ry rz
   end
   begin
      id 20
      name RightHand_dum1
      direction 0.000000 0.000000 0.000000
      length 0.000000
      axis 0.0 0.0 90.0 xyz
   end
   begin
      id 21
      name RightHand_dum2
      direction -1.000000 0.000000 0.000000
      length 3.937000
      axis 0.0 0.0 90.0 xyz
   end
   begin
      id 22
      name RightHandThumb1
      direction 0.000000 0.000000 1.000000
      length 3.937000
      axis 0.0 0.0 90.0 xyz
      dof rx rz ry
   end
   begin
      id 23
      name LeftUpLeg
      direction 0.000000 -1.000000 0.000000
      length 16.181467
      axis 0.0 0.0 0.0 xyz
      dof rx ry rz
   end
   begin
      id 24
      name LeftLeg
      direction 0.000000 -1.000000 0.000000
      length 16.501392
      axis 0.0 0.0 0.0 xyz
      dof rx ry rz
   end
   begin
      id 25
      name LeftFoot
      direction 0.000000 -0.258819 0.965926
      length 6.408245
      axis 15.0 0.0 0.0 xyz
      dof rx ry rz
   end
   begin
      id 26
      name LeftToeBase
      direction 0.000000 0.000000 1.000000
      length 2.952750
      axis 0.0 0.0 0.0 xyz
      dof rx ry rz
   end
   begin
      id 27
      name RightUpLeg
      direction 0.000000 -1.000000 0.000000
      length 16.181467
      axis 0.0 0.0 0.0 xyz
      dof rx ry rz
   end
   begin
      id 28
      name RightLeg
      direction 0.000000 -1.000000 0.000000
      length 16.501392
      axis 0.0 0.0 0.0 xyz
      dof rx ry rz
   end
   begin
      id 29
      name RightFoot
      direction 0.000000 -0.258819 0.965926
      length 6.408245
      axis 15.0 0.0 0.0 xyz
      dof rx ry rz
   end
   begin
      id 30
      name RightToeBase
      direction 0.000000 0.000000 1.000000
      length 2.952750
      axis 0.0 0.0 0.0 xyz
      dof rx ry rz
   end
:hierarchy
   begin
      root Spine_dum LeftUpLeg_dum RightUpLeg_dum
      Spine_dum Spine
      LeftUpLeg_dum LeftUpLeg
      RightUpLeg_dum RightUpLeg
      Spine Spine_dum1 Spine_dum2 Spine_dum3
      Spine_dum1 Head
      Spine_dum2 LeftShoulder
      Spine_dum3 RightShoulder
      LeftShoulder LeftArm
      LeftArm LeftForeArm
      LeftForeArm LeftHand
      LeftHand LeftHand_dum1 LeftHand_dum2
      LeftHand_dum1 LeftHandThumb1
      RightShoulder RightArm
      RightArm RightForeArm
      RightForeArm RightHand
      RightHand RightHand_dum1 RightHand_dum2
      RightHand_dum1 RightHandThumb1
      LeftUpLeg LeftLeg
      LeftLeg LeftFoot
      LeftFoot LeftToeBase
      RightUpLeg RightLeg
      RightLeg RightFoot
      RightFoot RightToeBase
   end

# File created by Blade
# Date/Time:  Wed Apr 08 17:39:35 2015
# Frame Rate: 120.000 fps
#------------------------------------------------------
:FULLY-SPECIFIED
:DEGREES
1177
root 4.445695 36.315605 3.967425 -16.376860 -72.363921 -377.813996
Spine 39.704851 1.309933 1.337731
Head 31.753195 7.460138 14.848681
LeftShoulder -8.247694 15.508035 15.469085
LeftArm 19.566189 16.531033 -80.189349
LeftForeArm 17.981535 -0.000000 25.092022
LeftHand -11.893667 -0.000000 -13.536195
LeftHandThumb1 -26.253704 0.000000 33.147579
RightShoulder -30.358928 -45.059339 12.233900
RightArm 56.152633 -18.094610 52.323825
RightForeArm 2.277848 -0.000000 19.408667
RightHand -3.246433 -0.000000 30.038328
RightHandThumb1 -24.326973 -0.000000 -32.862282
LeftUpLeg 40.566191 12.521369 8.286704
LeftLeg 7.672139 -0.000000 -0.000000
LeftFoot -14.210991 8.164687 -1.425741
LeftToeBase 1.613922 -0.000000 -0.000000
RightUpLeg -25.785614 -3.397070 7.400075
RightLeg 75.704021 -0.000000 -0.000000
RightFoot 16.695992 -10.308873 17.699965
RightToeBase -1.707008 -0.000000 0.000000
1178
root 4.444646 36.316245 3.960050 -16.164194 -72.477477 -378.019050
Spine 39.670978 1.321968 1.318489
Head 31.810990 7.545112 14.889928
LeftShoulder -8.257215 15.546216 15.494787
LeftArm 19.517850 16.539149 -80.161233
LeftForeArm 17.867526 -0.000000 24.971877
LeftHand -11.940530 -0.000000 -13.559056
LeftHandThumb1 -26.253704 0.000000 33.147579
RightShoulder -30.298396 -45.052616 12.203761
RightArm 56.258366 -18.097513 52.354798
RightForeArm 2.407286 -0.000000 19.392785
RightHand -3.260798 0.000000 30.271201
RightHandThumb1 -24.326973 -0.000000 -32.862282
LeftUpLeg 40.556783 12.585423 8.375475
LeftLeg 7.699212 -0.000000 -0.000000
LeftFoot -14.241262 8.175259 -1.486997
LeftToeBase 1.751586 -0.000000 -0.000000
RightUpLeg -25.941646 -3.736991 7.530240
RightLeg 76.174664 -0.000000 -0.000000
RightFoot 19.656752 -9.965869 19.203324
RightToeBase 0.434902 -0.000000 -0.000000
1179
root 4.443155 36.318115 3.955253 -16.003241 -72.561058 -378.184956
Spine 39.655664 1.316357 1.276854
Head 31.862412 7.636328 14.938628
LeftShoulder -8.259789 15.555807 15.526497
LeftArm 19.446195 16.551395 -80.143539
LeftForeArm 17.887346 -0.000000 24.843288
LeftHand -11.968305 0.000000 -13.551534
LeftHandThumb1 -26.253704 0.000000 33.147579
RightShoulder -30.238813 -45.037751 12.186106
RightArm 56.336526 -18.098930 52.375720
RightForeArm 2.696275 -0.000000 19.424430
RightHand -3.280882 -0.000000 30.468184
RightHandThumb1 -24.326973 -0.000000 -32.862282
LeftUpLeg 40.565365 12.660344 8.481287
LeftLeg 7.726163 -0.000000 -0.000000
LeftFoot -14.254086 8.126463 -1.548364
LeftToeBase 1.827706 -0.000000 -0.000000
RightUpLeg -26.062542 -4.152686 7.635928
RightLeg 76.655381 -0.000000 -0.000000
RightFoot 22.308503 -9.942979 21.114595
RightToeBase 2.747619 -0.000000 -0.000000
1180
root 4.441346 36.320262 3.948882 -15.841396 -72.618462 -378.353228
Spine 39.640309 1.283580 1.207865
Head 31.905684 7.693972 14.998040
LeftShoulder -8.264508 15.555697 15.577250
LeftArm 19.379339 16.581866 -80.119810
LeftForeArm 17.870462 0.000000 24.677353
LeftHand -11.943551 -0.000000 -13.555330
LeftHandThumb1 -26.253704 0.000000 33.147579
RightShoulder -30.183754 -45.038197 12.178435
RightArm 56.408383 -18.067770 52.455387
RightForeArm 2.882390 -0.000000 19.455080
RightHand -3.258558 -0.000000 30.677481
RightHandThumb1 -24.326973 -0.000000 -32.862282
LeftUpLeg 40.590087 12.753130 8.629917
LeftLeg 7.732728 -0.000000 -0.000000
LeftFoot -14.265515 8.002388 -1.581921
LeftToeBase 1.890967 -0.000000 -0.000000
RightUpLeg -26.164303 -4.581396 7.747705
RightLeg 77.165635 -0.000000 -0.000000
RightFoot 24.379645 -10.110284 23.345374
RightToeBase 5.582174 -0.000000 -0.000000
1181
root 4.439471 36.322750 3.945673 -15.731184 -72.640804 -378.471301
Spine 39.620636 1.213769 1.128426
Head 31.970345 7.736838 15.017494
LeftShoulder -8.240399 15.558933 15.606147
LeftArm 19.310964 16.619324 -80.064490
LeftForeArm 17.933880 -0.000000 24.501662
LeftHand -11.872898 -0.000000 -13.515093
LeftHandThumb1 -26.253704 0.000000 33.147579
RightShoulder -30.122323 -45.018085 12.125696
RightArm 56.450652 -18.051888 52.586505
RightForeArm 3.157188 -0.000000 19.469524
RightHand -3.213671 -0.000000 30.882857
RightHandThumb1 -24.326973 -0.000000 -32.862282
LeftUpLeg 40.617868 12.833990 8.763197
LeftLeg 7.731786 -0.000000 -0.000000
LeftFoot -14.261279 7.860830 -1.629259
LeftToeBase 1.923148 -0.000000 -0.000000
RightUpLeg -26.256508 -5.118922 7.846366
RightLeg 77.725483 -0.000000 -0.000000
RightFoot 25.833792 -9.927423 24.806143
RightToeBase 8.243878 -0.000000 -0.000000
1182
root 4.437829 36.325951 3.942368 -15.608687 -72.637169 -378.599615
Spine 39.600039 1.135688 1.048771
Head 32.028796 7.749998 15.059354
LeftShoulder -8.198778 15.568951 15.628379
LeftArm 19.259366 16.586093 -80.006361
LeftForeArm 18.224583 -0.000000 24.335375
LeftHand -11.776929 -0.000000 -13.672487
LeftHandThumb1 -26.253704 0.000000 33.147579
RightShoulder -30.106165 -44.977168 12.113131
RightArm 56.472038 -18.073299 52.668061
RightForeArm 3.429884 -0.000000 19.563921
RightHand -3.179304 0.000000 30.902872
RightHandThumb1 -24.326973 -0.000000 -32.862282
LeftUpLeg 40.644983 12.923470 8.923786
LeftLeg 7.727757 -0.000000 -0.000000
LeftFoot -14.258524 7.672249 -1.683442
LeftToeBase 1.968588 -0.000000 -0.000000
RightUpLeg -26.330273 -5.733451 7.971450
RightLeg 78.252147 -0.000000 -0.000000
RightFoot 26.854642 -9.546122 25.359822
RightToeBase 9.573688 -0.000000 -0.000000
1183
root 4.437792 36.329278 3.942901 -15.528352 -72.614516 -378.688705
Spine 39.583552 1.038842 0.967770
Head 32.094841 7.759770 15.076574
LeftShoulder -8.159802 15.538056 15.630348
LeftArm 19.199075 16.662069 -79.916105
LeftForeArm 18.457320 -0.000000 24.132037
LeftHand -11.712489 -0.000000 -13.565471
LeftHandThumb1 -26.253704 0.000000 33.147579
RightShoulder -30.070582 -44.959457 12.069928
RightArm 56.492015 -18.069470 52.779011
RightForeArm 3.690136 -0.000000 19.642924
RightHand -3.096292 -0.000000 31.025975
RightHandThumb1 -24.326973 -0.000000 -32.862282
LeftUpLeg 40.669631 13.021495 9.079038
LeftLeg 7.734055 -0.000000 -0.000000
LeftFoot -14.254702 7.488989 -1.706768
LeftToeBase 2.010069 -0.000000 -0.000000
RightUpLeg -26.401710 -6.459868 8.094976
RightLeg 78.776226 -0.000000 -0.000000
RightFoot 27.398272 -9.218649 25.529484
RightToeBase 10.915660 -0.000000 -0.000000
